# xmcd
#
# Track frame offsets: 
#        150
#        15063
#        27528
#        38603
#        50737
#        62293
#        75016
#        98637
#        108448
#        124782
#        140368
#
# Disc length: 2083 seconds
#
# Revision: 0
# Processed by: cddbd v1.5.1PL2 Copyright (c) Steve Scherf et al.
# Submitted via: ExactAudioCopy v0.95b3
#
DISCID=7608210b
DTITLE=Jade - The First Year
DYEAR=2004
DGENRE=Country
TTITLE0=Have Mercy
TTITLE1=Break It To Me Gently
TTITLE2=Your Cheatin' Heart
TTITLE3=Can't Even Get The Blues
TTITLE4=Leavin' On Your Mind
TTITLE5=Crazy
TTITLE6=Blue Moon Of Kentucky
TTITLE7=Walkin' After Midnight
TTITLE8=A Broken Wing
TTITLE9=Why Haven't I Heard From You
TTITLE10=Amazing Grace
EXTD=
EXTT0=
EXTT1=
EXTT2=
EXTT3=
EXTT4=
EXTT5=
EXTT6=
EXTT7=
EXTT8=
EXTT9=
EXTT10=
PLAYORDER=
